<svg width="100" height="92" viewBox="0 0 100 92" fill="none" xmlns="http://www.w3.org/2000/svg">
<circle cx="49.9439" cy="46.3121" r="7.40187" fill="#F2542D"/>
<circle cx="49.944" cy="46.3122" r="20.3178" stroke="#F2542D" stroke-width="12"/>
<path d="M24.9422 58.2162L29.9772 61.4796L36.5039 51.4098L31.469 48.1464L24.9422 58.2162ZM6 38.7888L0.424654 36.5717C-0.63287 39.2311 0.335041 42.2671 2.73663 43.8237L6 38.7888ZM85.7071 31.1672C88.084 33.4762 91.8826 33.4211 94.1915 31.0443C96.5005 28.6674 96.4454 24.8688 94.0686 22.5599L85.7071 31.1672ZM31.469 48.1464L9.26337 33.7539L2.73663 43.8237L24.9422 58.2162L31.469 48.1464ZM11.5753 41.0059C15.84 30.2815 25.0202 18.4574 37.3169 13.9394C48.9348 9.67073 65.2336 11.2787 85.7071 31.1672L94.0686 22.5599C71.3645 0.50451 50.3798 -3.64452 33.1784 2.67561C16.6558 8.74634 5.48085 23.8569 0.424654 36.5717L11.5753 41.0059Z" fill="#F2542D"/>
<path d="M75.0578 33.5202L70.0229 30.2569L63.4961 40.3267L68.531 43.5901L75.0578 33.5202ZM94 52.9477L99.5753 55.1648C100.633 52.5054 99.665 49.4694 97.2634 47.9128L94 52.9477ZM14.2929 60.5692C11.916 58.2603 8.11742 58.3154 5.80848 60.6922C3.49953 63.0691 3.55458 66.8677 5.93144 69.1766L14.2929 60.5692ZM68.531 43.5901L90.7366 57.9826L97.2634 47.9128L75.0578 33.5202L68.531 43.5901ZM88.4247 50.7306C84.16 61.455 74.9798 73.2791 62.6831 77.7971C51.0652 82.0658 34.7664 80.4578 14.2929 60.5692L5.93144 69.1766C28.6355 91.232 49.6202 95.381 66.8216 89.0609C83.3442 82.9902 94.5192 67.8796 99.5753 55.1648L88.4247 50.7306Z" fill="#F2542D"/>
</svg>
